<?xml version="1.0" encoding="utf-8"?>
<!-- Uploaded to: SVG Repo, www.svgrepo.com, Generator: SVG Repo Mixer Tools -->
<svg width="800px" height="800px" viewBox="0 -54.5 1133 1133" class="icon"  version="1.1" xmlns="http://www.w3.org/2000/svg"><path d="M781.264 626.824c-60.856-57.2-95.808-134.672-98.424-218.128-2.616-83.48 27.432-162.968 84.608-223.824 3.12-3.32 5.032-7.2 6.296-11.28 1.128-3.096 1.968-6.336 1.968-9.824a28.792 28.792 0 0 0-28.808-28.816c-283.536 0-514.224 230.688-514.224 514.232a28.8 28.8 0 0 0 28.816 28.816c15.92 0 28.808-12.88 28.808-28.816 0-230.728 172.192-421.552 394.696-451.912a367.344 367.344 0 0 0-59.76 213.216c3.096 98.84 44.488 190.584 116.568 258.304a28.624 28.624 0 0 0 19.72 7.832c7.68 0 15.336-3.04 20.992-9.096a28.76 28.76 0 0 0-1.256-40.704z" fill="#0092D2" /><path d="M429.48 804.192c0 103.648-84.16 187.808-187.896 187.808-103.712 0-187.784-84.16-187.784-187.808 0-103.776 84.072-187.84 187.784-187.84 103.736 0 187.896 84.072 187.896 187.84zM970.2 777.176c0 103.656-84.16 187.816-187.84 187.816s-187.832-84.16-187.832-187.816c0-103.736 84.16-187.832 187.832-187.832 103.688 0 187.84 84.104 187.84 187.832z" fill="#F5B146" /><path d="M803.176 255.296c-3.4 0-6.856-0.312-10.352-0.928-131.192-23.864-250.472-115.304-255.48-119.184a57.6 57.6 0 0 1-10.272-80.832c19.48-25.152 55.688-29.736 80.784-10.328 1.968 1.52 103.008 78.304 205.56 96.96a57.624 57.624 0 0 1-10.24 114.312z" fill="#E5226B" /><path d="M859.824 207.968a57.648 57.648 0 0 1-66.992 46.4c-131.192-23.864-250.472-115.304-255.48-119.184a57.6 57.6 0 0 1-10.272-80.832s72.624 63.48 159.056 103.096c74.68 34.2 173.688 50.52 173.688 50.52z" fill="#C9005B" /><path d="M866.432 609.408l-164.984 337.04a186.464 186.464 0 0 0 80.912 18.544c103.688 0 187.84-84.16 187.84-187.816 0-73.456-42.32-136.912-103.768-167.768zM337.808 643.088l-183.224 327.448a186.688 186.688 0 0 0 87 21.472c103.736 0 187.896-84.16 187.896-187.808 0-68.552-36.864-128.344-91.672-161.112z" fill="#EDA02F" /></svg>